<?xml version="1.0" encoding="iso-8859-1"?>
<!-- Uploaded to: SVG Repo, www.svgrepo.com, Generator: SVG Repo Mixer Tools -->
<svg height="800px" width="800px" version="1.1" id="Layer_1" xmlns="http://www.w3.org/2000/svg" xmlns:xlink="http://www.w3.org/1999/xlink" 
	 viewBox="0 0 511.997 511.997" xml:space="preserve">
<circle style="fill:#0F7986;" cx="255.999" cy="255.999" r="255.999"/>
<path style="fill:#15BDB2;" d="M135.229,346.853l33.813-4.949l9.341,4.949v153.152c-15.036-4.779-29.467-10.904-43.153-18.243
	L135.229,346.853L135.229,346.853z M340.374,497.749V346.853l33.816-4.949l9.341,4.949v131.166
	C369.888,485.869,355.449,492.487,340.374,497.749z"/>
<path style="fill:#21D0C3;" d="M125.885,341.903h43.156v154.935c-15.098-5.45-29.53-12.289-43.156-20.347V341.903z M331.031,500.815
	V341.903h43.156v141.222C360.479,490.274,346.05,496.217,331.031,500.815z"/>
<path style="fill:#FFFFFF;" d="M125.885,341.903h43.156v5.59v39.337h-43.156V341.903z M331.031,386.83v-44.927h43.156v44.927
	H331.031z"/>
<path style="fill:#FAD24D;" d="M281.188,331.314l-57.365,78.305l26.83-4.419l-23.806,68.405l57.365-78.305l-26.83,4.417
	l23.803-68.405L281.188,331.314z"/>
<g>
	<path style="fill:#ECF0F1;" d="M169.04,341.903l9.341,4.949v43.67l-9.341-3.696V341.9V341.903z"/>
	<path style="fill:#ECF0F1;" d="M374.187,341.903l9.341,4.949v43.67l-9.341-3.696V341.9V341.903z"/>
</g>
<path style="fill:#D1D2D4;" d="M354.574,285.981v33.205h-4.042v-33.205H354.574z M154.836,285.981v33.205h4.042v-33.205H154.836z
	 M144.145,299.135v26.985h4.045v-26.985H144.145z M365.266,299.135v26.985h-4.042v-26.985H365.266z"/>
<path style="fill:#FF5B62;" d="M256,226.037h-1.83v87.241c0,5.608-4.868,10.282-10.71,10.282h-2.678
	c-5.844,0-13.238-4.63-13.238-10.282v-86.063l-16.9,0.034v-88.757c0-23.705,21.018-18.219,30.99-24.452
	c2.919-1.823,3.271-6.012,3.699-10.715c-6.091-4.668-10.193-12.826-10.193-20.076v-6.71c0-10.92,9.304-19.853,20.682-19.853l0,0
	l0.176,0.005l0.179-0.005l0,0c11.379,0,20.682,8.932,20.682,19.853v6.71c0,7.25-4.102,15.408-10.193,20.077
	c0.425,4.703,0.779,8.892,3.696,10.715c9.972,6.23,30.99,0.789,30.99,24.452v88.757l-16.9-0.034v86.063
	c0,5.613-7.397,10.282-13.238,10.282h-2.678c-5.839,0-10.71-4.632-10.71-10.282v-87.242h-1.83H256z"/>
<g>
	<path style="fill:#FAD24D;" d="M379.231,215.031h-1.27v60.507c0,3.887-3.378,7.129-7.428,7.129h-1.854
		c-4.052,0-9.183-3.211-9.183-7.129v-59.694l-11.72,0.024v-61.556c0-16.441,14.576-12.635,21.493-16.958
		c2.025-1.265,2.269-4.171,2.563-7.431c-4.223-3.24-7.069-8.898-7.069-13.928v-4.653c0-7.572,6.455-13.768,14.348-13.768l0,0
		l0.121,0.003l0.124-0.003l0,0c7.893,0,14.345,6.196,14.345,13.768v4.653c0,5.031-2.843,10.689-7.069,13.928
		c0.293,3.261,0.54,6.164,2.563,7.431c6.916,4.321,21.493,0.548,21.493,16.958v61.556l-11.72-0.024v59.694
		c0,3.89-5.131,7.129-9.18,7.129h-1.857c-4.05,0-7.425-3.213-7.425-7.129v-60.507H379.231z"/>
	<path style="fill:#FAD24D;" d="M132.766,215.031h-1.27v60.507c0,3.887-3.375,7.129-7.425,7.129h-1.857
		c-4.052,0-9.18-3.211-9.18-7.129v-59.694l-11.72,0.024v-61.556c0-16.441,14.576-12.635,21.496-16.958
		c2.022-1.265,2.267-4.171,2.563-7.431c-4.223-3.24-7.069-8.898-7.069-13.928v-4.653c0-7.572,6.452-13.768,14.345-13.768l0,0
		l0.121,0.003l0.126-0.003l0,0c7.893,0,14.345,6.196,14.345,13.768v4.653c0,5.031-2.846,10.689-7.069,13.928
		c0.293,3.261,0.538,6.164,2.563,7.431c6.916,4.321,21.496,0.548,21.496,16.958v61.556l-11.722-0.024v59.694
		c0,3.89-5.128,7.129-9.18,7.129h-1.859c-4.05,0-7.425-3.213-7.425-7.129v-60.507h-1.273H132.766z"/>
</g>
</svg>