<?xml version="1.0" encoding="iso-8859-1"?>
<!-- Uploaded to: SVG Repo, www.svgrepo.com, Generator: SVG Repo Mixer Tools -->
<svg height="800px" width="800px" version="1.1" id="Layer_1" xmlns="http://www.w3.org/2000/svg" xmlns:xlink="http://www.w3.org/1999/xlink" 
	 viewBox="0 0 512 512" xml:space="preserve">
<polygon style="fill:#1D1D1F;" points="48.833,447.831 48.833,87.348 395.069,87.348 395.069,133.583 95.068,133.583 
	95.068,401.595 325.078,401.595 325.078,447.831 "/>
<circle style="fill:#005A95;" cx="71.95" cy="110.465" r="71.95"/>
<circle style="fill:#940009;" cx="71.95" cy="424.712" r="71.95"/>
<circle style="fill:#003C61;" cx="325.077" cy="424.712" r="71.95"/>
<path style="fill:#DB7D03;" d="M484.138,43.201c-17.967-17.967-41.904-27.862-67.312-27.862c-25.409,0-49.249,9.895-67.215,27.862
	c-17.967,17.967-27.862,41.855-27.862,67.264s9.895,49.297,27.862,67.264c17.967,17.967,41.807,27.862,67.215,27.862
	c25.409,0,49.346-9.895,67.312-27.862C502.105,159.761,512,135.872,512,110.464S502.105,61.168,484.138,43.201z"/>
<g>
	<path style="fill:#FF9800;" d="M416.826,15.341c-25.376,0.024-49.271,9.915-67.215,27.861
		c-17.967,17.967-27.862,41.855-27.862,67.264s9.895,49.297,27.862,67.264c17.946,17.945,41.841,27.837,67.215,27.861V15.341z"/>
	<path style="fill:#FF9800;" d="M455.231,72.109c-10.245-10.245-23.903-15.888-38.392-15.888s-28.077,5.642-38.322,15.888
		c-10.245,10.245-15.888,23.868-15.888,38.357s5.642,28.111,15.888,38.357c10.245,10.245,23.832,15.888,38.322,15.888
		c14.489,0,28.146-5.642,38.392-15.888c10.245-10.245,15.888-23.868,15.888-38.357S465.477,82.354,455.231,72.109z"/>
</g>
<path style="fill:#F7DC4D;" d="M416.84,56.221c-14.465,0.017-28.091,5.657-38.322,15.886
	c-10.245,10.245-15.888,23.868-15.888,38.357s5.642,28.111,15.888,38.357c10.23,10.23,23.857,15.87,38.322,15.886V56.221z"/>
<path style="fill:#0066A6;" d="M324.559,352.775c-39.497,0.281-71.432,32.374-71.432,71.937c0,39.562,31.935,71.656,71.432,71.937
	V352.775z"/>
<path style="fill:#FF0029;" d="M71.432,352.775C31.935,353.056,0,385.149,0,424.713s31.935,71.658,71.432,71.937V352.775z"/>
<path style="fill:#31AAEF;" d="M0,110.465c0,39.737,32.213,71.951,71.951,71.951V38.515C32.213,38.515,0,70.728,0,110.465z"/>
</svg>