<?xml version="1.0" encoding="iso-8859-1"?>
<!-- Uploaded to: SVG Repo, www.svgrepo.com, Generator: SVG Repo Mixer Tools -->
<svg height="800px" width="800px" version="1.1" id="Layer_1" xmlns="http://www.w3.org/2000/svg" xmlns:xlink="http://www.w3.org/1999/xlink" 
	 viewBox="0 0 512.008 512.008" xml:space="preserve">
<circle style="fill:#21D0C3;" cx="255.999" cy="256.004" r="255.999"/>
<g>
	<path style="fill:#FFFFFF;" d="M257.799,52.551l86.743,50.081l86.787,50.107c1.131,0.651,1.767,1.834,1.767,3.054h0.015v100.215
		v100.215c0,1.426-0.846,2.657-2.064,3.215l-86.507,49.944l-86.787,50.107c-1.142,0.655-2.496,0.6-3.552-0.027l-86.743-50.081
		l-86.787-50.107c-1.131-0.651-1.767-1.834-1.767-3.054H78.89V256.005V155.79c0-1.426,0.846-2.657,2.064-3.215l86.507-49.944
		l86.787-50.107C255.389,51.869,256.744,51.924,257.799,52.551z M341.035,108.737L256,59.644l-85.035,49.093L85.96,157.815v98.191
		v98.191l85.006,49.078L256,452.368l85.035-49.093l85.006-49.078v-98.191v-98.191L341.035,108.737z"/>
	<path style="fill:#FFFFFF;" d="M259.162,54.012l86.674,150.123l0.007-0.004l86.787,150.32c0.977,1.687,0.401,3.845-1.285,4.822
		c-0.558,0.322-1.167,0.476-1.769,0.474v0.009H256H82.424c-1.951,0-3.536-1.585-3.536-3.537c0-0.759,0.241-1.462,0.648-2.037
		l86.623-150.037l0.007-0.011l-0.007-0.004l86.787-150.32c0.977-1.687,3.135-2.26,4.822-1.285
		C258.392,52.886,258.864,53.408,259.162,54.012z M339.736,207.653L256.005,62.626l-83.738,145.039l-0.007-0.004L88.531,352.683H256
		h167.46l-83.727-145.014l0.007-0.004l-0.007-0.011h0.003V207.653z"/>
	<path style="fill:#FFFFFF;" d="M256.002,449.384l83.731-145.026l0.007-0.011l-0.007-0.004l83.727-145.017H256H88.531
		l83.729,145.021l0.007-0.004l83.738,145.039L256.002,449.384z M345.834,307.874L259.16,457.998
		c-0.297,0.602-0.769,1.127-1.393,1.488c-1.687,0.977-3.845,0.401-4.822-1.285l-86.787-150.32l0.007-0.004l-0.007-0.011
		l-86.624-150.04c-0.408-0.576-0.648-1.279-0.648-2.037c0-1.951,1.585-3.536,3.536-3.536h173.576h173.576v0.009
		c0.602-0.002,1.211,0.152,1.769,0.474c1.687,0.977,2.26,3.135,1.285,4.822l-86.787,150.32l-0.007-0.004V307.874z"/>
</g>
<circle style="fill:#FAD24D;" cx="82.419" cy="155.79" r="24.591"/>
<circle style="fill:#0F7986;" cx="255.999" cy="55.576" r="24.591"/>
<circle style="fill:#FF5B62;" cx="429.579" cy="155.79" r="24.591"/>
<circle style="fill:#FCB42A;" cx="429.579" cy="356.218" r="24.591"/>
<circle style="fill:#0F7986;" cx="255.999" cy="456.432" r="24.591"/>
<circle style="fill:#FF5B62;" cx="82.419" cy="356.218" r="24.591"/>
<path style="fill:#ECF0F1;" d="M256,180.117c41.91,0,75.886,33.975,75.886,75.888c0,41.91-33.977,75.888-75.886,75.888
	s-75.886-33.977-75.886-75.888S214.09,180.117,256,180.117z"/>
<circle style="fill:#FFFFFF;" cx="412.982" cy="374.392" r="99.026"/>
<path style="fill:#FAD24D;" d="M412.979,285.929c48.852,0,88.456,39.603,88.456,88.461c0,48.852-39.605,88.461-88.456,88.461
	c-48.855,0-88.461-39.605-88.461-88.461S364.123,285.929,412.979,285.929z"/>
<path style="fill:#FED298;" d="M233.427,300.045l-38.188,1.429c-8.738-11.659-14.201-25.918-15.018-41.407l54.671,2.256
	c1.778-3.876,6.231-9.196,9.362-10.069l9.17-9.829l2.423-7.828l1.22-9.5c0.47-3.645,6.136-4.004,8.928-0.651
	c3.158,3.786,3.435,13.011,2.249,17.14l-3.951,13.791l20.381,0.487l6.78-0.322c7.25-0.344,8.33,11.588,0.472,11.962l-6.16,0.295
	l-0.172,0.981l7.082-0.631c6.028-0.538,7.113,10.923,0.257,11.533l-9.393,0.84l-0.194,1.118l6.94-0.629
	c2.365-0.214,4.425,2.245,4.425,5.443v0.002c0,3.2-1.834,5.693-4.196,5.964l-8.017,0.924l0.011,0.609l5.25-0.219
	c5.507-0.23,5.751,9.622,0.56,10.173l-6.575,0.704l-0.004,0.04l-1.111,0.08l-0.024,0.002v-0.002l-10.319,0.735l-23.689,0.829
	c-4.941,0.174-9.128-2.185-11.551-4.37c-0.693-0.624-1.242-1.268-1.625-1.885L233.427,300.045z"/>
<path style="fill:#0F7986;" d="M214.452,257.28l0.536,46.421l-16.951,1.281c-11.172-13.205-17.912-30.277-17.923-48.923
	L214.452,257.28z"/>
<path style="fill:#FFFFFF;" d="M222.729,258.616l0.721,43.588l-8.435,0.044l-0.721-43.588L222.729,258.616z"/>
<path style="fill:#15BDB2;" d="M205.589,296.85c0.022,2.031-1.57,3.693-3.548,3.713c-1.98,0.022-3.601-1.61-3.618-3.64
	c-0.02-2.031,1.57-3.693,3.548-3.715c1.98-0.02,3.601,1.61,3.618,3.64V296.85z"/>
<path style="fill:#FFFFFF;" d="M262.05,225.785l-0.39,6.295c-1.528-0.503-3.1-0.763-4.758-0.503l0.472-5.733
	c0.291-3.552,4.897-3.59,4.677-0.062v0.003H262.05z"/>
<path style="fill:#B6B6B8;" d="M258.13,200.029h2.258v10.105h-2.258V200.029z M248.117,201.124l-2.174,0.611l2.743,9.728
	l2.174-0.613L248.117,201.124z M269.535,201.124l2.172,0.611l-2.743,9.728l-2.172-0.613L269.535,201.124z M301.68,243.336
	l-0.177,2.254l-10.076-0.787l0.177-2.252L301.68,243.336z M300.52,231.937l0.443,2.214l-9.911,1.98l-0.443-2.216L300.52,231.937z
	 M296.313,221.279l1.025,2.013l-9,4.59l-1.027-2.011L296.313,221.279z M289.371,212.164l1.535,1.656l-7.417,6.864l-1.535-1.656
	L289.371,212.164z M280.219,205.274l1.922,1.178l-5.277,8.619l-1.922-1.18L280.219,205.274z M215.975,243.336l0.177,2.254
	l10.074-0.787l-0.175-2.252L215.975,243.336z M217.135,231.937l-0.441,2.214l9.911,1.98l0.443-2.216l-9.911-1.978H217.135z
	 M221.345,221.279l-1.027,2.013l9,4.59l1.027-2.011L221.345,221.279z M228.285,212.164l-1.535,1.656l7.417,6.864l1.535-1.656
	L228.285,212.164z M237.439,205.274l-1.927,1.178l5.277,8.619l1.925-1.18l-5.277-8.616L237.439,205.274L237.439,205.274z"/>
<path style="fill:#ECF0F1;" d="M343.746,374.387c39.678-58.4,98.782-58.4,138.46,0C442.528,432.787,383.425,432.787,343.746,374.387
	z"/>
<circle style="fill:#21D0C3;" cx="412.972" cy="374.392" r="33.69"/>
<circle style="fill:#15BDB2;" cx="412.972" cy="374.392" r="23.541"/>
<circle style="fill:#666666;" cx="412.972" cy="374.392" r="12.246"/>
<g>
	<circle style="fill:#FFFFFF;" cx="396.274" cy="360.529" r="5.81"/>
	<circle style="fill:#FFFFFF;" cx="423.102" cy="384.532" r="3.953"/>
</g>
</svg>